<svg width="28" height="28" viewBox="0 0 28 28" fill="none" xmlns="http://www.w3.org/2000/svg">
<g clip-path="url(#clip0_123_5)">
<path d="M24.3719 2.15393L22.4704 23.4553L13.9232 25.8249L5.39947 23.4587L3.5 2.15393H24.3719Z" fill="#264DE4"/>
<path d="M20.8426 22.0989L22.4676 3.89587H13.936V24.0137L20.8426 22.0989Z" fill="#2965F1"/>
<path d="M7.85449 11.7976L8.08868 14.4105H13.9359V11.7976H7.85449Z" fill="#EBEBEB"/>
<path d="M13.9358 6.50891H13.9268H7.38379L7.62132 9.12188H13.9358V6.50891Z" fill="#EBEBEB"/>
<path d="M13.9361 21.3021V18.5836L13.9246 18.5866L11.0146 17.8009L10.8285 15.7169H9.41449H8.20557L8.57164 19.8196L13.9241 21.3055L13.9361 21.3021Z" fill="#EBEBEB"/>
<path d="M17.1443 14.4105L16.841 17.7993L13.9268 18.5858V21.3043L19.2834 19.8197L19.3227 19.3782L19.9367 12.4992L20.0005 11.7976L20.4722 6.50891H13.9268V9.12188H17.6087L17.3709 11.7976H13.9268V14.4105H17.1443Z" fill="white"/>
</g>
<defs>
<clipPath id="clip0_123_5">
<rect width="21" height="23.8544" fill="white" transform="translate(3.5 2.07288)"/>
</clipPath>
</defs>
</svg>
