<svg width="28" height="28" viewBox="0 0 28 28" fill="none" xmlns="http://www.w3.org/2000/svg">
<g clip-path="url(#clip0_123_8)">
<path d="M17.1657 10.1136L14.3654 12.7209L11.7661 7.47568L13.1089 4.45979C13.4483 3.8582 14.0033 3.85026 14.3427 4.45979L17.1657 10.1136Z" fill="#FFA000"/>
<path d="M14.3666 12.7196L3.89209 22.462L11.7672 7.47559L14.3666 12.7196Z" fill="#F57F17"/>
<path d="M20.236 6.12604C20.7377 5.64817 21.2542 5.80935 21.3847 6.48812L24.1078 22.3303L15.076 27.7526C14.7593 27.9297 13.9193 27.9989 13.9193 27.9989C13.9193 27.9989 13.1554 27.9058 12.8626 27.7447L3.89209 22.462L20.236 6.12604Z" fill="#FFCA28"/>
<path d="M11.7672 7.47576L3.89209 22.4621L7.40174 0.557482C7.53341 -0.121292 7.9182 -0.190532 8.26553 0.411057L11.7672 7.47576Z" fill="#FFA000"/>
</g>
<defs>
<clipPath id="clip0_123_8">
<rect width="20.2157" height="28" fill="white" transform="translate(3.89209)"/>
</clipPath>
</defs>
</svg>
