<svg width="28" height="28" viewBox="0 0 28 28" fill="none" xmlns="http://www.w3.org/2000/svg">
<g clip-path="url(#clip0_123_2)">
<path d="M14 16.5245C15.3784 16.5245 16.4957 15.3942 16.4957 14C16.4957 12.6057 15.3784 11.4755 14 11.4755C12.6217 11.4755 11.5044 12.6057 11.5044 14C11.5044 15.3942 12.6217 16.5245 14 16.5245Z" fill="#61DAFB"/>
<path d="M13.9999 19.1722C21.3958 19.1722 27.3913 16.8565 27.3913 14C27.3913 11.1435 21.3958 8.82788 13.9999 8.82788C6.60413 8.82788 0.608643 11.1435 0.608643 14C0.608643 16.8565 6.60413 19.1722 13.9999 19.1722Z" stroke="#61DAFB" stroke-width="1.38182"/>
<path d="M9.57202 16.586C13.2699 23.065 18.2502 27.1594 20.6957 25.7312C23.1412 24.3029 22.126 17.8929 18.4281 11.4139C14.7302 4.93488 9.74993 0.84044 7.3044 2.26869C4.85886 3.69694 5.87412 10.107 9.57202 16.586Z" stroke="#61DAFB" stroke-width="1.38182"/>
<path d="M9.57208 11.4138C5.87417 17.8928 4.85892 24.3029 7.30445 25.7312C9.74998 27.1594 14.7302 23.065 18.4281 16.586C22.126 10.107 23.1413 3.69691 20.6958 2.26867C18.2502 0.840418 13.27 4.93486 9.57208 11.4138Z" stroke="#61DAFB" stroke-width="1.38182"/>
</g>
<defs>
<clipPath id="clip0_123_2">
<rect width="28" height="25.2" fill="white" transform="translate(0 1.40002)"/>
</clipPath>
</defs>
</svg>
